<svg width="146" height="25" viewBox="0 0 146 25" fill="none" xmlns="http://www.w3.org/2000/svg">
<path d="M0.03125 1.25H8.51562C10.2552 1.25 11.75 1.51042 13 2.03125C14.2604 2.55208 15.2292 3.32292 15.9062 4.34375C16.5833 5.36458 16.9219 6.61979 16.9219 8.10938C16.9219 9.32812 16.7135 10.375 16.2969 11.25C15.8906 12.1146 15.3125 12.8385 14.5625 13.4219C13.8229 13.9948 12.9531 14.4531 11.9531 14.7969L10.4688 15.5781H3.09375L3.0625 11.9219H8.54688C9.36979 11.9219 10.0521 11.776 10.5938 11.4844C11.1354 11.1927 11.5417 10.7865 11.8125 10.2656C12.0938 9.74479 12.2344 9.14062 12.2344 8.45312C12.2344 7.72396 12.099 7.09375 11.8281 6.5625C11.5573 6.03125 11.1458 5.625 10.5938 5.34375C10.0417 5.0625 9.34896 4.92188 8.51562 4.92188H4.71875V24H0.03125V1.25ZM12.75 24L7.5625 13.8594L12.5156 13.8281L17.7656 23.7812V24H12.75ZM22.6719 1.25H26.6406L32.4844 17.9531L38.3281 1.25H42.2969L34.0781 24H30.8906L22.6719 1.25ZM20.5312 1.25H24.4844L25.2031 17.5312V24H20.5312V1.25ZM40.4844 1.25H44.4531V24H39.7656V17.5312L40.4844 1.25ZM67.25 12.0938V13.1719C67.25 14.901 67.0156 16.4531 66.5469 17.8281C66.0781 19.2031 65.4167 20.375 64.5625 21.3438C63.7083 22.3021 62.6875 23.0365 61.5 23.5469C60.3229 24.0573 59.0156 24.3125 57.5781 24.3125C56.151 24.3125 54.8438 24.0573 53.6562 23.5469C52.4792 23.0365 51.4583 22.3021 50.5938 21.3438C49.7292 20.375 49.0573 19.2031 48.5781 17.8281C48.1094 16.4531 47.875 14.901 47.875 13.1719V12.0938C47.875 10.3542 48.1094 8.80208 48.5781 7.4375C49.0469 6.0625 49.7083 4.89062 50.5625 3.92188C51.4271 2.95312 52.4479 2.21354 53.625 1.70312C54.8125 1.19271 56.1198 0.9375 57.5469 0.9375C58.9844 0.9375 60.2917 1.19271 61.4688 1.70312C62.6562 2.21354 63.6771 2.95312 64.5312 3.92188C65.3958 4.89062 66.0625 6.0625 66.5312 7.4375C67.0104 8.80208 67.25 10.3542 67.25 12.0938ZM62.5156 13.1719V12.0625C62.5156 10.8542 62.4062 9.79167 62.1875 8.875C61.9688 7.95833 61.6458 7.1875 61.2188 6.5625C60.7917 5.9375 60.2708 5.46875 59.6562 5.15625C59.0417 4.83333 58.3385 4.67188 57.5469 4.67188C56.7552 4.67188 56.0521 4.83333 55.4375 5.15625C54.8333 5.46875 54.3177 5.9375 53.8906 6.5625C53.474 7.1875 53.1562 7.95833 52.9375 8.875C52.7188 9.79167 52.6094 10.8542 52.6094 12.0625V13.1719C52.6094 14.3698 52.7188 15.4323 52.9375 16.3594C53.1562 17.276 53.4792 18.0521 53.9062 18.6875C54.3333 19.3125 54.8542 19.7865 55.4688 20.1094C56.0833 20.4323 56.7865 20.5938 57.5781 20.5938C58.3698 20.5938 59.0729 20.4323 59.6875 20.1094C60.3021 19.7865 60.8177 19.3125 61.2344 18.6875C61.651 18.0521 61.9688 17.276 62.1875 16.3594C62.4062 15.4323 62.5156 14.3698 62.5156 13.1719ZM89.6094 20.3125V0H94.1406V24H90.0625L89.6094 20.3125ZM78.9219 15.75V15.4219C78.9219 14.1302 79.0677 12.9583 79.3594 11.9062C79.651 10.8438 80.0781 9.93229 80.6406 9.17188C81.2031 8.41146 81.8958 7.82292 82.7188 7.40625C83.5417 6.98958 84.4792 6.78125 85.5312 6.78125C86.5208 6.78125 87.3854 6.98958 88.125 7.40625C88.875 7.82292 89.5104 8.41667 90.0312 9.1875C90.5625 9.94792 90.9896 10.849 91.3125 11.8906C91.6354 12.9219 91.8698 14.0521 92.0156 15.2812V16C91.8698 17.1771 91.6354 18.2708 91.3125 19.2812C90.9896 20.2917 90.5625 21.1771 90.0312 21.9375C89.5104 22.6875 88.875 23.2708 88.125 23.6875C87.375 24.1042 86.5 24.3125 85.5 24.3125C84.4479 24.3125 83.5104 24.099 82.6875 23.6719C81.875 23.2448 81.1875 22.6458 80.625 21.875C80.0729 21.1042 79.651 20.1979 79.3594 19.1562C79.0677 18.1146 78.9219 16.9792 78.9219 15.75ZM83.4219 15.4219V15.75C83.4219 16.4479 83.474 17.099 83.5781 17.7031C83.6927 18.3073 83.875 18.8438 84.125 19.3125C84.3854 19.7708 84.7188 20.1302 85.125 20.3906C85.5417 20.6406 86.0469 20.7656 86.6406 20.7656C87.4115 20.7656 88.0469 20.5938 88.5469 20.25C89.0469 19.8958 89.4271 19.4115 89.6875 18.7969C89.9583 18.1823 90.1146 17.474 90.1562 16.6719V14.625C90.125 13.9688 90.0312 13.3802 89.875 12.8594C89.7292 12.3281 89.5104 11.875 89.2188 11.5C88.9375 11.125 88.5833 10.8333 88.1562 10.625C87.7396 10.4167 87.2448 10.3125 86.6719 10.3125C86.0885 10.3125 85.5885 10.4479 85.1719 10.7188C84.7552 10.9792 84.4167 11.3385 84.1562 11.7969C83.9062 12.2552 83.7188 12.7969 83.5938 13.4219C83.4792 14.0365 83.4219 14.7031 83.4219 15.4219ZM106.781 20.1875V12.6562C106.781 12.1146 106.693 11.651 106.516 11.2656C106.339 10.8698 106.062 10.5625 105.688 10.3438C105.323 10.125 104.849 10.0156 104.266 10.0156C103.766 10.0156 103.333 10.1042 102.969 10.2812C102.604 10.4479 102.323 10.6927 102.125 11.0156C101.927 11.3281 101.828 11.6979 101.828 12.125H97.3281C97.3281 11.4062 97.4948 10.724 97.8281 10.0781C98.1615 9.43229 98.6458 8.86458 99.2812 8.375C99.9167 7.875 100.672 7.48438 101.547 7.20312C102.432 6.92188 103.422 6.78125 104.516 6.78125C105.828 6.78125 106.995 7 108.016 7.4375C109.036 7.875 109.839 8.53125 110.422 9.40625C111.016 10.2812 111.312 11.375 111.312 12.6875V19.9219C111.312 20.849 111.37 21.6094 111.484 22.2031C111.599 22.7865 111.766 23.2969 111.984 23.7344V24H107.438C107.219 23.5417 107.052 22.9688 106.938 22.2812C106.833 21.5833 106.781 20.8854 106.781 20.1875ZM107.375 13.7031L107.406 16.25H104.891C104.297 16.25 103.781 16.3177 103.344 16.4531C102.906 16.5885 102.547 16.7812 102.266 17.0312C101.984 17.2708 101.776 17.5521 101.641 17.875C101.516 18.1979 101.453 18.5521 101.453 18.9375C101.453 19.3229 101.542 19.6719 101.719 19.9844C101.896 20.2865 102.151 20.526 102.484 20.7031C102.818 20.8698 103.208 20.9531 103.656 20.9531C104.333 20.9531 104.922 20.8177 105.422 20.5469C105.922 20.276 106.307 19.9427 106.578 19.5469C106.859 19.151 107.005 18.776 107.016 18.4219L108.203 20.3281C108.036 20.7552 107.807 21.1979 107.516 21.6562C107.234 22.1146 106.875 22.5469 106.438 22.9531C106 23.349 105.474 23.6771 104.859 23.9375C104.245 24.1875 103.516 24.3125 102.672 24.3125C101.599 24.3125 100.625 24.099 99.75 23.6719C98.8854 23.2344 98.1979 22.6354 97.6875 21.875C97.1875 21.1042 96.9375 20.2292 96.9375 19.25C96.9375 18.3646 97.1042 17.5781 97.4375 16.8906C97.7708 16.2031 98.2604 15.625 98.9062 15.1562C99.5625 14.6771 100.38 14.3177 101.359 14.0781C102.339 13.8281 103.474 13.7031 104.766 13.7031H107.375ZM123.922 19.3281C123.922 19.0052 123.828 18.7135 123.641 18.4531C123.453 18.1927 123.104 17.9531 122.594 17.7344C122.094 17.5052 121.37 17.2969 120.422 17.1094C119.568 16.9219 118.771 16.6875 118.031 16.4062C117.302 16.1146 116.667 15.7656 116.125 15.3594C115.594 14.9531 115.177 14.474 114.875 13.9219C114.573 13.3594 114.422 12.7188 114.422 12C114.422 11.2917 114.573 10.625 114.875 10C115.188 9.375 115.63 8.82292 116.203 8.34375C116.786 7.85417 117.495 7.47396 118.328 7.20312C119.172 6.92188 120.12 6.78125 121.172 6.78125C122.641 6.78125 123.901 7.01562 124.953 7.48438C126.016 7.95312 126.828 8.59896 127.391 9.42188C127.964 10.2344 128.25 11.1615 128.25 12.2031H123.75C123.75 11.7656 123.656 11.375 123.469 11.0312C123.292 10.6771 123.01 10.401 122.625 10.2031C122.25 9.99479 121.76 9.89062 121.156 9.89062C120.656 9.89062 120.224 9.97917 119.859 10.1562C119.495 10.3229 119.214 10.5521 119.016 10.8438C118.828 11.125 118.734 11.4375 118.734 11.7812C118.734 12.0417 118.786 12.276 118.891 12.4844C119.005 12.6823 119.188 12.8646 119.438 13.0312C119.688 13.1979 120.01 13.3542 120.406 13.5C120.812 13.6354 121.312 13.7604 121.906 13.875C123.125 14.125 124.214 14.4531 125.172 14.8594C126.13 15.2552 126.891 15.7969 127.453 16.4844C128.016 17.1615 128.297 18.0521 128.297 19.1562C128.297 19.9062 128.13 20.5938 127.797 21.2188C127.464 21.8438 126.984 22.3906 126.359 22.8594C125.734 23.3177 124.984 23.6771 124.109 23.9375C123.245 24.1875 122.271 24.3125 121.188 24.3125C119.615 24.3125 118.281 24.0312 117.188 23.4688C116.104 22.9062 115.281 22.1927 114.719 21.3281C114.167 20.4531 113.891 19.5573 113.891 18.6406H118.156C118.177 19.2552 118.333 19.75 118.625 20.125C118.927 20.5 119.307 20.7708 119.766 20.9375C120.234 21.1042 120.74 21.1875 121.281 21.1875C121.865 21.1875 122.349 21.1094 122.734 20.9531C123.12 20.7865 123.411 20.5677 123.609 20.2969C123.818 20.0156 123.922 19.6927 123.922 19.3281ZM135.609 0V24H131.109V0H135.609ZM134.969 14.9531H133.734C133.745 13.776 133.901 12.6927 134.203 11.7031C134.505 10.7031 134.938 9.83854 135.5 9.10938C136.062 8.36979 136.734 7.79688 137.516 7.39062C138.307 6.98438 139.182 6.78125 140.141 6.78125C140.974 6.78125 141.729 6.90104 142.406 7.14062C143.094 7.36979 143.682 7.74479 144.172 8.26562C144.672 8.77604 145.057 9.44792 145.328 10.2812C145.599 11.1146 145.734 12.125 145.734 13.3125V24H141.203V13.2812C141.203 12.5312 141.094 11.9427 140.875 11.5156C140.667 11.0781 140.359 10.7708 139.953 10.5938C139.557 10.4062 139.068 10.3125 138.484 10.3125C137.839 10.3125 137.286 10.4323 136.828 10.6719C136.38 10.9115 136.021 11.2448 135.75 11.6719C135.479 12.0885 135.281 12.5781 135.156 13.1406C135.031 13.7031 134.969 14.3073 134.969 14.9531Z" fill="#E1E1E6"/>
<path d="M70.5625 21.8281C70.5625 21.1615 70.7917 20.6042 71.25 20.1562C71.7188 19.7083 72.3385 19.4844 73.1094 19.4844C73.8802 19.4844 74.4948 19.7083 74.9531 20.1562C75.4219 20.6042 75.6562 21.1615 75.6562 21.8281C75.6562 22.4948 75.4219 23.0521 74.9531 23.5C74.4948 23.9479 73.8802 24.1719 73.1094 24.1719C72.3385 24.1719 71.7188 23.9479 71.25 23.5C70.7917 23.0521 70.5625 22.4948 70.5625 21.8281Z" fill="#00B5D8"/>
</svg>
